M48
;Layer_Color=9474304
;FILE_FORMAT=2:5
INCH,TZ
;TYPE=PLATED
T1F00S00C0.01181
T2F00S00C0.03150
T3F00S00C0.03200
T4F00S00C0.11024
%
T01
X-61200Y-41500
X-57700Y-38003
X-61311Y-25753
X-45600Y-54600
X35300Y-53500
X48100Y-43078
X57400Y-33400
T02
X22700Y-64500
X28700
X34700
X40700
X46700
T03
X-49505Y-42433
X-45969Y-45969
X-42433Y-49504
X61501Y-21655
X62795Y-16826
X64089Y-11996
X-11996Y64089
X-16826Y62795
X-21655Y61501
T04
X-58268Y-58268
X58268
Y58268
X-58268
M30
