G04*
G04 #@! TF.GenerationSoftware,Altium Limited,Altium Designer,19.1.5 (86)*
G04*
G04 Layer_Color=8388736*
%FSLAX25Y25*%
%MOIN*%
G70*
G01*
G75*
G04:AMPARAMS|DCode=19|XSize=43mil|YSize=38mil|CornerRadius=0mil|HoleSize=0mil|Usage=FLASHONLY|Rotation=315.000|XOffset=0mil|YOffset=0mil|HoleType=Round|Shape=Rectangle|*
%AMROTATEDRECTD19*
4,1,4,-0.02864,0.00177,-0.00177,0.02864,0.02864,-0.00177,0.00177,-0.02864,-0.02864,0.00177,0.0*
%
%ADD19ROTATEDRECTD19*%

%ADD20R,0.04000X0.04000*%
%ADD21P,0.05657X4X165.0*%
G04:AMPARAMS|DCode=22|XSize=43mil|YSize=38mil|CornerRadius=0mil|HoleSize=0mil|Usage=FLASHONLY|Rotation=255.000|XOffset=0mil|YOffset=0mil|HoleType=Round|Shape=Rectangle|*
%AMROTATEDRECTD22*
4,1,4,-0.01279,0.02568,0.02392,0.01585,0.01279,-0.02568,-0.02392,-0.01585,-0.01279,0.02568,0.0*
%
%ADD22ROTATEDRECTD22*%

G04:AMPARAMS|DCode=23|XSize=43mil|YSize=38mil|CornerRadius=0mil|HoleSize=0mil|Usage=FLASHONLY|Rotation=195.000|XOffset=0mil|YOffset=0mil|HoleType=Round|Shape=Rectangle|*
%AMROTATEDRECTD23*
4,1,4,0.01585,0.02392,0.02568,-0.01279,-0.01585,-0.02392,-0.02568,0.01279,0.01585,0.02392,0.0*
%
%ADD23ROTATEDRECTD23*%

%ADD24C,0.05524*%
G04:AMPARAMS|DCode=25|XSize=55.24mil|YSize=48mil|CornerRadius=0mil|HoleSize=0mil|Usage=FLASHONLY|Rotation=105.000|XOffset=0mil|YOffset=0mil|HoleType=Round|Shape=Round|*
%AMOVALD25*
21,1,0.00724,0.04800,0.00000,0.00000,105.0*
1,1,0.04800,0.00094,-0.00350*
1,1,0.04800,-0.00094,0.00350*
%
%ADD25OVALD25*%

G04:AMPARAMS|DCode=26|XSize=55.24mil|YSize=48mil|CornerRadius=0mil|HoleSize=0mil|Usage=FLASHONLY|Rotation=225.000|XOffset=0mil|YOffset=0mil|HoleType=Round|Shape=Round|*
%AMOVALD26*
21,1,0.00724,0.04800,0.00000,0.00000,225.0*
1,1,0.04800,0.00256,0.00256*
1,1,0.04800,-0.00256,-0.00256*
%
%ADD26OVALD26*%

G04:AMPARAMS|DCode=27|XSize=55.24mil|YSize=48mil|CornerRadius=0mil|HoleSize=0mil|Usage=FLASHONLY|Rotation=345.000|XOffset=0mil|YOffset=0mil|HoleType=Round|Shape=Round|*
%AMOVALD27*
21,1,0.00724,0.04800,0.00000,0.00000,345.0*
1,1,0.04800,-0.00350,0.00094*
1,1,0.04800,0.00350,-0.00094*
%
%ADD27OVALD27*%

%ADD28C,0.11824*%
D19*
X-41351Y-58851D02*
D03*
X-37249Y-54749D02*
D03*
D20*
X58400Y-38200D02*
D03*
X53400D02*
D03*
X44400Y-52300D02*
D03*
X39400D02*
D03*
D21*
X-58950Y-34365D02*
D03*
X-61450Y-30035D02*
D03*
D22*
X58699Y-28749D02*
D03*
X64301Y-30251D02*
D03*
D23*
X-30251Y64801D02*
D03*
X-28749Y59199D02*
D03*
D24*
X46700Y-64500D02*
D03*
X40700D02*
D03*
X34700D02*
D03*
X28700D02*
D03*
X22700D02*
D03*
D25*
X-21655Y61501D02*
D03*
X-16826Y62795D02*
D03*
X-11996Y64089D02*
D03*
D26*
X-49505Y-42433D02*
D03*
X-45969Y-45969D02*
D03*
X-42433Y-49504D02*
D03*
D27*
X64089Y-11996D02*
D03*
X62795Y-16826D02*
D03*
X61501Y-21655D02*
D03*
D28*
X-58268Y-58268D02*
D03*
X58268D02*
D03*
Y58268D02*
D03*
X-58268D02*
D03*
M02*
