G04*
G04 #@! TF.GenerationSoftware,Altium Limited,Altium Designer,19.1.5 (86)*
G04*
G04 Layer_Color=128*
%FSLAX25Y25*%
%MOIN*%
G70*
G01*
G75*
%ADD37C,0.00200*%
D37*
X45125Y-64500D02*
X48275D01*
X46700Y-66075D02*
Y-62925D01*
X39125Y-64500D02*
X42275D01*
X40700Y-66075D02*
Y-62925D01*
X33125Y-64500D02*
X36275D01*
X34700Y-66075D02*
Y-62925D01*
X27125Y-64500D02*
X30275D01*
X28700Y-66075D02*
Y-62925D01*
X21125Y-64500D02*
X24275D01*
X22700Y-66075D02*
Y-62925D01*
X-23255Y61501D02*
X-20055D01*
X-21655Y59901D02*
Y63101D01*
X-18426Y62795D02*
X-15226D01*
X-16826Y61195D02*
Y64395D01*
X-13596Y64089D02*
X-10396D01*
X-11996Y62489D02*
Y65689D01*
X-51104Y-42433D02*
X-47905D01*
X-49505Y-44033D02*
Y-40833D01*
X-47569Y-45969D02*
X-44369D01*
X-45969Y-47569D02*
Y-44369D01*
X-44033Y-49504D02*
X-40833D01*
X-42433Y-51104D02*
Y-47904D01*
X62489Y-11996D02*
X65689D01*
X64089Y-13596D02*
Y-10396D01*
X61195Y-16826D02*
X64395D01*
X62795Y-18426D02*
Y-15226D01*
X59901Y-21655D02*
X63101D01*
X61501Y-23255D02*
Y-20055D01*
X-63779Y-58268D02*
X-52756D01*
X-58268Y-63779D02*
Y-52756D01*
X52756Y-58268D02*
X63779D01*
X58268Y-63779D02*
Y-52756D01*
X52756Y58268D02*
X63779D01*
X58268Y52756D02*
Y63779D01*
X-63779Y58268D02*
X-52756D01*
X-58268Y52756D02*
Y63779D01*
X-46191Y-54600D02*
X-45009D01*
X-45600Y-55190D02*
Y-54009D01*
X-61791Y-41500D02*
X-60610D01*
X-61200Y-42091D02*
Y-40909D01*
X-58290Y-38003D02*
X-57109D01*
X-57700Y-38594D02*
Y-37412D01*
X47510Y-43078D02*
X48691D01*
X48100Y-43668D02*
Y-42487D01*
X34709Y-53500D02*
X35891D01*
X35300Y-54090D02*
Y-52909D01*
X-61902Y-25753D02*
X-60721D01*
X-61311Y-26343D02*
Y-25162D01*
X56810Y-33400D02*
X57990D01*
X57400Y-33991D02*
Y-32809D01*
M02*
