G04*
G04 #@! TF.GenerationSoftware,Altium Limited,Altium Designer,19.1.5 (86)*
G04*
G04 Layer_Color=255*
%FSLAX25Y25*%
%MOIN*%
G70*
G01*
G75*
G04:AMPARAMS|DCode=14|XSize=35mil|YSize=30mil|CornerRadius=0mil|HoleSize=0mil|Usage=FLASHONLY|Rotation=315.000|XOffset=0mil|YOffset=0mil|HoleType=Round|Shape=Rectangle|*
%AMROTATEDRECTD14*
4,1,4,-0.02298,0.00177,-0.00177,0.02298,0.02298,-0.00177,0.00177,-0.02298,-0.02298,0.00177,0.0*
%
%ADD14ROTATEDRECTD14*%

%ADD15R,0.03200X0.03200*%
%ADD16P,0.04526X4X165.0*%
G04:AMPARAMS|DCode=17|XSize=35mil|YSize=30mil|CornerRadius=0mil|HoleSize=0mil|Usage=FLASHONLY|Rotation=255.000|XOffset=0mil|YOffset=0mil|HoleType=Round|Shape=Rectangle|*
%AMROTATEDRECTD17*
4,1,4,-0.00996,0.02079,0.01902,0.01302,0.00996,-0.02079,-0.01902,-0.01302,-0.00996,0.02079,0.0*
%
%ADD17ROTATEDRECTD17*%

G04:AMPARAMS|DCode=18|XSize=35mil|YSize=30mil|CornerRadius=0mil|HoleSize=0mil|Usage=FLASHONLY|Rotation=195.000|XOffset=0mil|YOffset=0mil|HoleType=Round|Shape=Rectangle|*
%AMROTATEDRECTD18*
4,1,4,0.01302,0.01902,0.02079,-0.00996,-0.01302,-0.01902,-0.02079,0.00996,0.01302,0.01902,0.0*
%
%ADD18ROTATEDRECTD18*%

%ADD30C,0.04724*%
G04:AMPARAMS|DCode=31|XSize=47.24mil|YSize=40mil|CornerRadius=0mil|HoleSize=0mil|Usage=FLASHONLY|Rotation=105.000|XOffset=0mil|YOffset=0mil|HoleType=Round|Shape=Round|*
%AMOVALD31*
21,1,0.00724,0.04000,0.00000,0.00000,105.0*
1,1,0.04000,0.00094,-0.00350*
1,1,0.04000,-0.00094,0.00350*
%
%ADD31OVALD31*%

G04:AMPARAMS|DCode=32|XSize=47.24mil|YSize=40mil|CornerRadius=0mil|HoleSize=0mil|Usage=FLASHONLY|Rotation=225.000|XOffset=0mil|YOffset=0mil|HoleType=Round|Shape=Round|*
%AMOVALD32*
21,1,0.00724,0.04000,0.00000,0.00000,225.0*
1,1,0.04000,0.00256,0.00256*
1,1,0.04000,-0.00256,-0.00256*
%
%ADD32OVALD32*%

G04:AMPARAMS|DCode=33|XSize=47.24mil|YSize=40mil|CornerRadius=0mil|HoleSize=0mil|Usage=FLASHONLY|Rotation=345.000|XOffset=0mil|YOffset=0mil|HoleType=Round|Shape=Round|*
%AMOVALD33*
21,1,0.00724,0.04000,0.00000,0.00000,345.0*
1,1,0.04000,-0.00350,0.00094*
1,1,0.04000,0.00350,-0.00094*
%
%ADD33OVALD33*%

%ADD34C,0.11024*%
D14*
X-41351Y-58851D02*
D03*
X-37249Y-54749D02*
D03*
D15*
X58400Y-38200D02*
D03*
X53400D02*
D03*
X44400Y-52300D02*
D03*
X39400D02*
D03*
D16*
X-58950Y-34365D02*
D03*
X-61450Y-30035D02*
D03*
D17*
X58699Y-28749D02*
D03*
X64301Y-30251D02*
D03*
D18*
X-30251Y64801D02*
D03*
X-28749Y59199D02*
D03*
D30*
X46700Y-64500D02*
D03*
X40700D02*
D03*
X34700D02*
D03*
X28700D02*
D03*
X22700D02*
D03*
D31*
X-21655Y61501D02*
D03*
X-16826Y62795D02*
D03*
X-11996Y64089D02*
D03*
D32*
X-49505Y-42433D02*
D03*
X-45969Y-45969D02*
D03*
X-42433Y-49504D02*
D03*
D33*
X64089Y-11996D02*
D03*
X62795Y-16826D02*
D03*
X61501Y-21655D02*
D03*
D34*
X-58268Y-58268D02*
D03*
X58268D02*
D03*
Y58268D02*
D03*
X-58268D02*
D03*
M02*
